# xmcd
#
# Track frame offsets:
#	151
#	17015
#	42771
#	62641
#	90171
#	108126
#	131319
#	147117
#	170380
#	187392
#	212095
#
# Disc length: 3105 seconds
#
# Revision: 0
# Processed by: cddbd v1.4PL0 Copyright (c) Steve Scherf et al.
# Submitted via: MusicWizard 6.0.2
#
DISCID=8b0c1f0b
DTITLE=Solomon Burke - Don't give up on me
DYEAR=2002
DGENRE=Soul
TTITLE0=Don't Give Up On Me
TTITLE1=Fast Train
TTITLE2=Diamond In Your Mind
TTITLE3=Flesh And Blood
TTITLE4=Soul Searchin'
TTITLE5=Only A Dream
TTITLE6=The Judgement
TTITLE7=Stepchild
TTITLE8=The Other Side Of The Coin
TTITLE9=None Of Us Are Free
TTITLE10=Sit This One Out
EXTD=
EXTT0=
EXTT1=
EXTT2=
EXTT3=
EXTT4=
EXTT5=
EXTT6=
EXTT7=
EXTT8=
EXTT9=
EXTT10=
PLAYORDER=
